<svg width="270" height="60" viewBox="0 0 270 60" fill="none" xmlns="http://www.w3.org/2000/svg">
<path d="M2.484 47.188C2.052 46.948 1.812 46.684 1.764 46.396C1.74 46.108 1.908 45.604 2.268 44.884C2.628 44.164 3.192 43.048 3.96 41.536C4.536 40.456 4.968 39.616 5.256 39.016C5.568 38.392 5.772 37.948 5.868 37.684C5.988 37.42 6.048 37.252 6.048 37.18C6 36.964 6.024 36.796 6.12 36.676C6.216 36.532 6.372 36.412 6.588 36.316C6.708 36.196 6.9 35.98 7.164 35.668C7.452 35.356 7.716 34.984 7.956 34.552C8.172 34.048 8.424 33.532 8.712 33.004C9 32.476 9.384 31.816 9.864 31.024C10.344 30.208 10.968 29.152 11.736 27.856C12.216 27.016 12.744 26.164 13.32 25.3C13.896 24.412 14.508 23.536 15.156 22.672C15.42 22.336 15.66 22.072 15.876 21.88C16.092 21.664 16.308 21.568 16.524 21.592C16.812 21.592 17.136 21.688 17.496 21.88C17.88 22.072 18.228 22.324 18.54 22.636C18.852 22.948 19.08 23.284 19.224 23.644C19.344 23.836 19.392 24.244 19.368 24.868C19.344 25.492 19.296 26.248 19.224 27.136C19.152 28.024 19.068 28.972 18.972 29.98C18.9 30.964 18.792 32.128 18.648 33.472C18.504 34.816 18.36 36.22 18.216 37.684C18.096 39.148 18 40.564 17.928 41.932C17.856 43.276 17.856 44.452 17.928 45.46C17.952 45.676 17.952 45.88 17.928 46.072C17.904 46.264 17.892 46.42 17.892 46.54C17.748 46.684 17.508 46.744 17.172 46.72C16.86 46.72 16.548 46.648 16.236 46.504C15.948 46.36 15.78 46.18 15.732 45.964C15.66 45.892 15.612 45.796 15.588 45.676C15.588 45.532 15.6 45.244 15.624 44.812C15.648 44.38 15.672 43.696 15.696 42.76L15.876 36.928L15.408 36.964C15.192 36.964 14.784 36.988 14.184 37.036C13.584 37.084 12.936 37.156 12.24 37.252C11.544 37.324 10.896 37.408 10.296 37.504C9.72 37.576 9.324 37.648 9.108 37.72C8.892 37.72 8.628 37.864 8.316 38.152C8.028 38.44 7.752 38.812 7.488 39.268C7.392 39.604 7.212 39.964 6.948 40.348C6.708 40.708 6.588 40.948 6.588 41.068C6.42 41.188 6.276 41.332 6.156 41.5C6.06 41.668 6.012 41.752 6.012 41.752C6.012 41.896 5.892 42.256 5.652 42.832C5.436 43.384 5.16 44.008 4.824 44.704C4.488 45.376 4.152 45.964 3.816 46.468L3.06 47.62L2.484 47.188ZM9.936 35.596C9.936 35.596 10.056 35.572 10.296 35.524C10.56 35.476 10.86 35.428 11.196 35.38C11.556 35.308 11.88 35.272 12.168 35.272C13.176 35.032 13.908 34.876 14.364 34.804C14.82 34.708 15.132 34.66 15.3 34.66C15.492 34.66 15.66 34.696 15.804 34.768C15.9 34.888 15.984 34.96 16.056 34.984C16.152 35.008 16.2 35.02 16.2 35.02C16.224 34.972 16.26 34.696 16.308 34.192C16.356 33.688 16.416 33.064 16.488 32.32C16.584 31.576 16.668 30.808 16.74 30.016C16.836 29.2 16.908 28.456 16.956 27.784C17.004 27.088 17.04 26.56 17.064 26.2C17.088 25.744 17.112 25.336 17.136 24.976C17.16 24.592 17.172 24.4 17.172 24.4C17.028 24.4 16.716 24.664 16.236 25.192C15.78 25.72 15.264 26.416 14.688 27.28C14.112 28.144 13.572 29.068 13.068 30.052C12.828 30.508 12.6 30.916 12.384 31.276C12.168 31.636 12 31.816 11.88 31.816C11.832 31.864 11.688 32.08 11.448 32.464C11.232 32.824 10.992 33.244 10.728 33.724C10.464 34.18 10.248 34.6 10.08 34.984C9.912 35.344 9.864 35.548 9.936 35.596ZM37.9063 44.488C37.7863 44.44 37.6063 44.32 37.3663 44.128C37.1263 43.936 36.9223 43.612 36.7543 43.156C36.5863 42.676 36.5023 42.016 36.5023 41.176C36.5263 40.456 36.5383 39.892 36.5383 39.484C36.5623 39.076 36.4783 38.872 36.2863 38.872C36.0943 38.872 35.7223 39.064 35.1703 39.448C34.6423 39.808 34.0303 40.3 33.3343 40.924C32.6383 41.548 31.9303 42.244 31.2103 43.012C30.9703 43.276 30.7303 43.528 30.4903 43.768C30.2743 43.984 30.0583 44.128 29.8423 44.2C29.6263 44.248 29.3743 44.164 29.0863 43.948L28.6903 43.624C28.5703 43.504 28.4983 43.384 28.4743 43.264C28.4503 43.12 28.4623 42.964 28.5103 42.796L29.3383 40.42C29.7223 39.556 29.9863 38.932 30.1303 38.548C30.2743 38.14 30.3463 37.888 30.3463 37.792C30.3463 37.672 30.3103 37.624 30.2383 37.648C30.0463 37.672 29.7583 37.792 29.3743 38.008C28.9903 38.2 28.7383 38.392 28.6183 38.584C28.5223 38.584 28.3783 38.692 28.1863 38.908C27.9943 39.124 27.7543 39.328 27.4663 39.52C27.2983 39.808 26.9623 40.18 26.4583 40.636C25.9783 41.092 25.4983 41.56 25.0183 42.04C24.7063 42.304 24.3943 42.628 24.0823 43.012C23.7943 43.396 23.5423 43.732 23.3263 44.02C23.1343 44.308 23.0023 44.452 22.9303 44.452C22.6183 44.452 22.3303 44.368 22.0663 44.2C21.8263 44.032 21.6463 43.756 21.5263 43.372C21.3343 42.964 21.3343 42.4 21.5263 41.68C21.7183 40.936 21.9343 39.976 22.1743 38.8C22.2703 38.44 22.3303 38.176 22.3543 38.008C22.3783 37.84 22.4143 37.672 22.4623 37.504C22.5343 37.312 22.6423 37.024 22.7863 36.64C22.9543 36.256 23.2063 35.68 23.5423 34.912C23.7103 34.456 23.8063 34.12 23.8303 33.904C23.8783 33.664 23.9023 33.496 23.9023 33.4C23.9023 33.16 23.9623 32.956 24.0823 32.788C24.2263 32.62 24.3943 32.5 24.5863 32.428C24.7783 32.356 24.9583 32.344 25.1263 32.392C25.3903 32.44 25.6183 32.572 25.8103 32.788C26.0263 33.004 26.1463 33.304 26.1703 33.688C26.1943 33.976 26.1703 34.24 26.0983 34.48C26.0263 34.696 25.9543 34.9 25.8823 35.092L25.4863 36.064C25.3663 36.328 25.2103 36.712 25.0183 37.216C24.8263 37.72 24.6583 38.188 24.5143 38.62C24.3703 39.028 24.2983 39.268 24.2983 39.34C24.3223 39.412 24.4063 39.4 24.5503 39.304C24.6943 39.184 24.8743 39.028 25.0903 38.836C25.3303 38.62 25.5703 38.416 25.8103 38.224C26.3143 37.744 26.8783 37.288 27.5023 36.856C28.1503 36.4 28.7623 36.016 29.3383 35.704C29.9143 35.392 30.3583 35.188 30.6703 35.092C31.0783 35.092 31.3543 35.164 31.4983 35.308C31.6663 35.452 31.9423 35.716 32.3263 36.1C32.4943 36.268 32.5903 36.484 32.6143 36.748C32.6383 37.012 32.6263 37.264 32.5783 37.504C32.5543 37.6 32.4823 37.84 32.3623 38.224C32.2423 38.584 32.1223 38.932 32.0023 39.268C31.9063 39.604 31.8583 39.772 31.8583 39.772C31.8583 39.772 31.9903 39.652 32.2543 39.412C32.5423 39.172 32.8543 38.92 33.1903 38.656C33.5263 38.368 33.7783 38.152 33.9463 38.008C34.8823 37.288 35.6983 36.832 36.3943 36.64C37.0903 36.448 37.6543 36.7 38.0863 37.396C38.3743 37.66 38.5183 37.948 38.5183 38.26C38.5423 38.572 38.5543 39.112 38.5543 39.88C38.5783 40.192 38.6023 40.564 38.6263 40.996C38.6503 41.428 38.6743 41.824 38.6983 42.184C38.7463 42.52 38.7943 42.724 38.8423 42.796C38.9143 42.892 39.0463 42.976 39.2383 43.048C39.4543 43.096 39.7303 43.144 40.0663 43.192C40.4263 43.24 40.6423 43.396 40.7143 43.66C40.7863 43.924 40.6303 44.176 40.2463 44.416C39.8863 44.632 39.4903 44.728 39.0583 44.704C38.6263 44.68 38.2423 44.608 37.9063 44.488ZM44.6228 44.92C44.3108 44.992 44.0228 44.992 43.7588 44.92C43.4948 44.848 43.2548 44.728 43.0388 44.56C42.8228 44.392 42.6308 44.224 42.4628 44.056C42.2948 43.864 42.2468 43.696 42.3188 43.552C42.3908 43.384 42.5108 43.3 42.6788 43.3C42.7748 43.3 42.8348 43.204 42.8588 43.012C42.9068 42.796 42.9548 42.412 43.0028 41.86C43.0508 41.524 43.1108 41.236 43.1828 40.996C43.2788 40.732 43.3268 40.552 43.3268 40.456C43.3508 40.384 43.3748 40.192 43.3988 39.88C43.4468 39.544 43.5188 39.256 43.6148 39.016C43.7108 38.584 43.8548 38.032 44.0468 37.36C44.2388 36.664 44.4308 35.992 44.6228 35.344C44.8388 34.672 45.0068 34.156 45.1268 33.796C45.1748 33.532 45.2828 33.196 45.4508 32.788C45.6188 32.38 45.7628 32.056 45.8828 31.816C46.1228 31.144 46.4348 30.34 46.8188 29.404C47.2268 28.468 47.6348 27.532 48.0428 26.596C48.4508 25.66 48.8108 24.868 49.1228 24.22C49.4588 23.548 49.6748 23.14 49.7708 22.996C49.9628 22.804 50.1908 22.72 50.4548 22.744C50.7428 22.768 51.0188 22.912 51.2828 23.176C51.4988 23.44 51.5948 23.728 51.5708 24.04C51.5468 24.328 51.3908 24.64 51.1028 24.976C51.0068 25.144 50.8988 25.36 50.7788 25.624C50.6588 25.864 50.5388 26.068 50.4188 26.236C50.2268 26.812 49.9868 27.376 49.6988 27.928C49.4348 28.48 49.1468 29.104 48.8348 29.8C48.5228 30.472 48.1868 31.312 47.8268 32.32C47.6108 32.776 47.4308 33.232 47.2868 33.688C47.1428 34.12 47.0228 34.396 46.9268 34.516C46.7828 35.044 46.6028 35.596 46.3868 36.172C46.1708 36.724 46.0148 37.288 45.9188 37.864C45.9188 37.864 46.0388 37.744 46.2788 37.504C46.5428 37.264 46.8548 36.964 47.2148 36.604C48.1508 35.596 49.0868 34.768 50.0228 34.12C50.9828 33.472 51.7748 33.136 52.3988 33.112C52.7348 33.088 53.0948 33.172 53.4788 33.364C53.8868 33.556 54.2588 33.796 54.5948 34.084C54.9308 34.348 55.1588 34.636 55.2788 34.948C55.4708 35.38 55.5428 35.848 55.4948 36.352C55.4708 36.832 55.3268 37.348 55.0628 37.9C54.8228 38.428 54.4868 38.968 54.0548 39.52C53.7908 39.976 53.4668 40.42 53.0828 40.852C52.7228 41.26 52.4108 41.56 52.1468 41.752C51.9068 41.968 51.6668 42.184 51.4268 42.4C51.2108 42.592 51.0308 42.748 50.8868 42.868C50.5748 43.084 50.3228 43.252 50.1308 43.372C49.9388 43.468 49.6748 43.576 49.3388 43.696C48.8348 44.056 48.1388 44.32 47.2508 44.488C46.3628 44.656 45.4868 44.8 44.6228 44.92ZM45.5588 43.084C45.7268 43.084 46.0268 43.048 46.4588 42.976C46.9148 42.904 47.3348 42.724 47.7188 42.436C48.8468 41.86 49.8188 41.152 50.6348 40.312C51.4508 39.448 52.0628 38.596 52.4708 37.756C52.9028 36.892 53.0948 36.184 53.0468 35.632C52.9988 35.08 52.5788 34.96 51.7868 35.272C50.9948 35.584 50.0348 36.304 48.9068 37.432C48.3788 37.912 47.8748 38.428 47.3948 38.98C46.9388 39.508 46.5068 40.012 46.0988 40.492C45.9308 40.756 45.7868 40.984 45.6668 41.176C45.5708 41.368 45.5108 41.56 45.4868 41.752C45.2948 42.64 45.3188 43.084 45.5588 43.084ZM57.7114 44.704C57.6154 44.512 57.4954 44.368 57.3514 44.272C57.2074 44.152 57.1354 44.044 57.1354 43.948C57.1354 43.852 57.1234 43.756 57.0994 43.66C57.0994 43.54 57.0514 43.432 56.9554 43.336C56.8354 43.192 56.8474 42.868 56.9914 42.364C57.1354 41.836 57.3754 41.2 57.7114 40.456C58.0474 39.688 58.4434 38.884 58.8994 38.044C59.0914 37.852 59.2834 37.6 59.4754 37.288C59.6674 36.976 59.8114 36.772 59.9074 36.676C59.9074 36.58 59.9434 36.496 60.0154 36.424C60.0874 36.328 60.1714 36.28 60.2674 36.28V36.064C60.2674 35.944 60.3754 35.74 60.5914 35.452C60.8314 35.164 61.1194 34.852 61.4554 34.516C61.7914 34.156 62.1394 33.82 62.4994 33.508C62.8594 33.172 63.1594 32.932 63.3994 32.788C63.9034 32.452 64.4194 32.248 64.9474 32.176C65.4994 32.104 65.9674 32.224 66.3514 32.536C66.4234 32.608 66.5434 32.728 66.7114 32.896C66.8794 33.064 67.0714 33.256 67.2874 33.472C67.5274 33.664 67.7674 33.868 68.0074 34.084L69.3394 35.272L68.6914 37.072C68.3794 38.032 68.2954 38.872 68.4394 39.592C68.6074 40.312 68.8474 40.936 69.1594 41.464C69.2794 41.728 69.5194 41.98 69.8794 42.22C70.2634 42.46 70.6234 42.604 70.9594 42.652C71.1514 42.676 71.3314 42.748 71.4994 42.868C71.6674 42.988 71.7514 43.18 71.7514 43.444C71.7514 43.684 71.7034 43.876 71.6074 44.02C71.5114 44.164 71.3434 44.26 71.1034 44.308C70.3114 44.404 69.5674 44.212 68.8714 43.732C68.1994 43.252 67.5754 42.46 66.9994 41.356C66.9034 41.212 66.7714 40.948 66.6034 40.564C66.4594 40.156 66.3754 39.892 66.3514 39.772C66.2554 39.892 66.0754 40.12 65.8114 40.456C65.5474 40.768 65.3434 40.996 65.1994 41.14C63.4954 42.868 62.0194 44.032 60.7714 44.632C59.5474 45.208 58.5274 45.232 57.7114 44.704ZM59.0074 42.688C59.0074 42.856 59.2594 42.856 59.7634 42.688C60.2914 42.496 60.8554 42.16 61.4554 41.68C62.2714 40.984 63.0874 40.216 63.9034 39.376C64.7434 38.536 65.4154 37.756 65.9194 37.036L66.7114 35.74C66.4714 35.188 66.2074 34.816 65.9194 34.624C65.6554 34.408 65.4274 34.3 65.2354 34.3C64.9234 34.3 64.4554 34.588 63.8314 35.164C63.2314 35.74 62.5834 36.508 61.8874 37.468C61.1914 38.428 60.5314 39.484 59.9074 40.636C59.6674 41.116 59.4514 41.584 59.2594 42.04C59.0914 42.472 59.0074 42.688 59.0074 42.688ZM76.4862 45.496C75.2862 45.496 74.4102 45.064 73.8582 44.2C73.6902 43.96 73.6062 43.72 73.6062 43.48C73.6302 43.216 73.7022 43.036 73.8222 42.94C73.9662 42.844 74.1342 42.928 74.3262 43.192C74.6622 43.384 75.1422 43.48 75.7662 43.48C76.0782 43.48 76.4022 43.456 76.7382 43.408C77.0742 43.336 77.4102 43.24 77.7462 43.12C78.1062 42.952 78.3462 42.808 78.4662 42.688C78.5862 42.544 78.5622 42.424 78.3942 42.328H78.4302C77.8062 42.16 77.1702 41.896 76.5222 41.536C75.8982 41.152 75.3582 40.744 74.9022 40.312C74.4462 39.856 74.1822 39.448 74.1102 39.088C73.9182 38.344 73.9662 37.588 74.2542 36.82C74.5422 36.028 74.9502 35.332 75.4782 34.732C75.6702 34.612 75.9102 34.468 76.1982 34.3C76.4862 34.108 76.7142 34 76.8822 33.976V34.012C77.3382 33.532 77.8902 33.148 78.5382 32.86C79.2102 32.572 79.9182 32.308 80.6622 32.068L81.2022 31.996C81.4902 31.948 81.7302 31.924 81.9222 31.924C81.8982 31.924 81.9462 31.948 82.0662 31.996C82.1862 32.02 82.2942 32.044 82.3902 32.068C82.5342 32.14 82.6542 32.176 82.7502 32.176C83.0622 32.224 83.3502 32.368 83.6142 32.608C83.8782 32.848 84.0822 33.136 84.2262 33.472C84.3942 33.784 84.4542 34.084 84.4062 34.372C84.3582 34.828 84.2142 35.236 83.9742 35.596C83.7582 35.956 83.4942 36.16 83.1822 36.208C83.2302 36.184 83.1942 36.148 83.0742 36.1C82.9782 36.028 82.8702 35.956 82.7502 35.884L82.6422 35.956C82.6422 35.956 82.6302 35.932 82.6062 35.884C82.6062 35.812 82.5822 35.728 82.5342 35.632C82.4622 35.488 82.4262 35.332 82.4262 35.164C82.4262 34.972 82.4382 34.768 82.4622 34.552C82.5102 34.288 82.5102 34.132 82.4622 34.084C82.4382 34.036 82.2822 34 81.9942 33.976C81.6582 33.904 81.1662 33.964 80.5182 34.156C79.8942 34.348 79.3662 34.612 78.9342 34.948C78.4062 35.284 77.9622 35.608 77.6022 35.92C77.2422 36.208 76.9542 36.496 76.7382 36.784C76.5222 37.048 76.3302 37.36 76.1622 37.72C76.0422 37.888 75.9342 38.056 75.8382 38.224C75.7662 38.368 75.7302 38.5 75.7302 38.62C75.7302 38.884 75.9222 39.16 76.3062 39.448C76.7142 39.712 77.3142 40.024 78.1062 40.384C78.7302 40.648 79.2582 40.936 79.6902 41.248C80.1222 41.56 80.4222 41.92 80.5902 42.328C80.6382 42.424 80.6502 42.544 80.6262 42.688C80.6262 42.808 80.6022 42.892 80.5542 42.94C80.6022 42.988 80.6262 43.024 80.6262 43.048V43.012C80.8182 43.3 80.8182 43.6 80.6262 43.912C80.4582 44.224 80.1582 44.5 79.7262 44.74C79.3182 44.956 78.8142 45.124 78.2142 45.244H78.2502C77.9382 45.34 77.6262 45.412 77.3142 45.46C77.0262 45.484 76.7502 45.496 76.4862 45.496ZM87.6398 46.144C87.1838 45.952 86.7518 45.7 86.3438 45.388C85.9358 45.052 85.6718 44.776 85.5518 44.56C85.5518 44.344 85.5878 44.2 85.6598 44.128C85.7318 44.032 85.9358 43.996 86.2718 44.02C86.6318 44.02 87.2078 44.068 87.9998 44.164C88.2878 44.164 88.6478 44.14 89.0798 44.092C89.5118 44.044 89.9078 43.972 90.2678 43.876C90.6518 43.78 90.8678 43.66 90.9158 43.516C91.0358 43.516 91.0598 43.48 90.9878 43.408C90.9158 43.312 90.8318 43.216 90.7358 43.12C90.6398 43.12 90.5318 43.084 90.4118 43.012C90.2918 42.916 90.1838 42.868 90.0878 42.868C90.0878 42.748 89.9678 42.616 89.7278 42.472C89.5118 42.304 89.2838 42.172 89.0438 42.076C88.5158 41.644 88.0598 41.26 87.6758 40.924C87.2918 40.564 87.1478 40.324 87.2438 40.204C87.2438 40.108 87.2438 40.06 87.2438 40.06C87.2438 40.036 87.2438 40.024 87.2438 40.024C87.0758 40.024 86.8838 39.784 86.6678 39.304C86.4758 38.824 86.3798 38.392 86.3798 38.008C86.3798 37.72 86.4638 37.36 86.6318 36.928C86.7998 36.472 87.0278 36.004 87.3158 35.524C87.6038 35.044 87.9038 34.648 88.2158 34.336C88.6478 33.928 89.1878 33.496 89.8358 33.04C90.4838 32.56 91.1198 32.14 91.7438 31.78C92.3918 31.396 92.9318 31.144 93.3638 31.024C93.7958 30.856 94.1918 30.772 94.5518 30.772C94.9358 30.772 95.2718 30.856 95.5598 31.024C95.7998 31.144 96.0158 31.324 96.2078 31.564C96.4238 31.78 96.6038 32.008 96.7478 32.248C96.9158 32.464 97.0238 32.656 97.0718 32.824C97.0718 33.112 97.0478 33.436 96.9998 33.796C96.9518 34.132 96.8798 34.432 96.7838 34.696C96.7118 34.96 96.5918 35.092 96.4238 35.092C96.4238 35.092 96.3878 35.104 96.3158 35.128C96.2678 35.128 96.2438 35.188 96.2438 35.308C96.2438 35.548 96.0638 35.824 95.7038 36.136C95.2478 36.448 94.8518 36.64 94.5158 36.712C94.1798 36.76 93.9758 36.628 93.9038 36.316C93.8318 36.22 93.7838 36.136 93.7598 36.064C93.7358 35.992 93.6758 35.956 93.5798 35.956C93.5798 35.956 93.5438 35.92 93.4718 35.848C93.3998 35.776 93.3638 35.656 93.3638 35.488C93.3638 35.392 93.3998 35.308 93.4718 35.236C93.5438 35.14 93.5798 35.092 93.5798 35.092C93.6998 35.092 93.8558 34.96 94.0478 34.696C94.2398 34.408 94.4078 34.108 94.5518 33.796C94.7198 33.46 94.8038 33.232 94.8038 33.112C94.8038 32.968 94.7798 32.884 94.7318 32.86C94.7078 32.836 94.5998 32.824 94.4078 32.824C94.0718 32.968 93.6638 33.16 93.1838 33.4C92.7038 33.64 92.2478 33.88 91.8158 34.12C91.4078 34.336 91.1078 34.54 90.9158 34.732C90.8198 34.9 90.7598 35.008 90.7358 35.056C90.7118 35.08 90.6518 35.092 90.5558 35.092C90.5558 34.996 90.4718 35.044 90.3038 35.236C90.1598 35.404 89.9678 35.644 89.7278 35.956C89.5118 36.268 89.2958 36.58 89.0798 36.892C88.8878 37.18 88.7438 37.396 88.6478 37.54C88.5998 37.588 88.5398 37.732 88.4678 37.972C88.4198 38.188 88.3958 38.392 88.3958 38.584C88.2998 38.872 88.3118 39.076 88.4318 39.196C88.5518 39.292 88.8158 39.508 89.2238 39.844C90.0638 40.468 90.7238 40.984 91.2038 41.392C91.6838 41.8 92.0438 42.136 92.2838 42.4C92.5238 42.664 92.6678 42.904 92.7158 43.12C93.1478 43.84 93.2798 44.392 93.1118 44.776C92.9438 45.16 92.5358 45.496 91.8878 45.784C91.6478 45.904 91.2518 46 90.6998 46.072C90.1478 46.144 89.5838 46.18 89.0078 46.18C88.4318 46.204 87.9758 46.192 87.6398 46.144ZM100.773 44.956C100.581 45.004 100.329 45.028 100.017 45.028C99.7053 45.004 99.4293 44.968 99.1893 44.92C98.9733 44.848 98.8653 44.776 98.8653 44.704C98.8653 44.584 98.8053 44.524 98.6853 44.524C98.6853 44.524 98.6253 44.476 98.5053 44.38C98.4093 44.284 98.2533 44.188 98.0373 44.092C97.8213 43.756 97.7133 43.396 97.7133 43.012C97.7133 42.604 97.8213 41.968 98.0373 41.104C98.1093 40.504 98.3373 39.808 98.7213 39.016C99.1293 38.2 99.6213 37.372 100.197 36.532C100.773 35.692 101.373 34.936 101.997 34.264C102.645 33.592 103.233 33.1 103.761 32.788C104.097 32.452 104.505 32.272 104.985 32.248C105.465 32.224 105.921 32.332 106.353 32.572C106.593 32.692 106.833 32.884 107.073 33.148C107.313 33.412 107.541 33.7 107.757 34.012C107.973 34.324 108.153 34.636 108.297 34.948C108.369 35.212 108.405 35.452 108.405 35.668C108.429 35.86 108.429 36.1 108.405 36.388C108.405 36.676 108.369 37.108 108.297 37.684C108.177 38.116 108.069 38.644 107.973 39.268C107.901 39.892 107.865 40.432 107.865 40.888C107.817 41.344 107.865 41.668 108.009 41.86C108.177 42.052 108.417 42.064 108.729 41.896C109.017 41.752 109.293 41.692 109.557 41.716C109.821 41.716 110.025 41.788 110.169 41.932C110.337 42.076 110.421 42.292 110.421 42.58C110.421 42.868 110.277 43.168 109.989 43.48C109.725 43.768 109.389 44.02 108.981 44.236C108.597 44.428 108.225 44.524 107.865 44.524C107.601 44.524 107.349 44.368 107.109 44.056C106.869 43.72 106.653 43.324 106.461 42.868C106.293 42.388 106.137 41.932 105.993 41.5L105.777 40.672L104.229 42.148C103.917 42.484 103.605 42.796 103.293 43.084C103.005 43.348 102.825 43.54 102.753 43.66C102.633 43.876 102.405 44.092 102.069 44.308C101.757 44.524 101.325 44.74 100.773 44.956ZM100.881 42.832C101.289 42.592 101.757 42.244 102.285 41.788C102.813 41.308 103.329 40.792 103.833 40.24C104.337 39.664 104.757 39.136 105.093 38.656C105.501 38.104 105.813 37.588 106.029 37.108C106.245 36.628 106.401 36.172 106.497 35.74C106.401 35.476 106.245 35.2 106.029 34.912C105.813 34.6 105.621 34.432 105.453 34.408C104.925 34.408 104.361 34.744 103.761 35.416C103.185 36.064 102.621 36.772 102.069 37.54C101.973 37.66 101.841 37.852 101.673 38.116C101.505 38.38 101.337 38.632 101.169 38.872C101.025 39.088 100.929 39.232 100.881 39.304C100.809 39.4 100.665 39.676 100.449 40.132C100.257 40.564 100.065 41.008 99.8733 41.464C99.6813 41.896 99.5853 42.184 99.5853 42.328C99.5853 42.472 99.5973 42.628 99.6213 42.796C99.6693 42.964 99.7893 43.072 99.9813 43.12C100.173 43.168 100.473 43.072 100.881 42.832ZM121.379 45.64C121.283 45.64 121.139 45.628 120.947 45.604C120.779 45.556 120.635 45.448 120.515 45.28C120.155 44.848 119.927 44.488 119.831 44.2C119.735 43.912 119.723 43.492 119.795 42.94C119.843 42.58 119.867 42.268 119.867 42.004C119.891 41.716 119.915 41.476 119.939 41.284C119.843 41.188 119.663 41.26 119.399 41.5C119.159 41.716 118.823 41.992 118.391 42.328C117.575 43.264 116.843 43.984 116.195 44.488C115.571 44.968 115.007 45.292 114.503 45.46C113.999 45.604 113.519 45.652 113.062 45.604C112.655 45.556 112.331 45.388 112.091 45.1C111.851 44.788 111.695 44.392 111.623 43.912C111.575 43.432 111.575 42.916 111.623 42.364C111.719 41.572 111.887 40.816 112.127 40.096C112.391 39.376 112.811 38.572 113.387 37.684C113.651 37.204 113.999 36.736 114.431 36.28C114.887 35.8 115.379 35.38 115.907 35.02C116.459 34.636 116.987 34.36 117.491 34.192C118.043 33.976 118.607 33.856 119.183 33.832C119.759 33.784 120.275 33.832 120.731 33.976C121.019 34.12 121.247 34.192 121.415 34.192C121.607 34.192 121.751 34.072 121.847 33.832C121.967 33.64 122.087 33.352 122.207 32.968C122.327 32.56 122.471 32.212 122.639 31.924L123.431 29.584C123.695 28.936 123.983 28.252 124.295 27.532C124.607 26.812 124.979 25.936 125.411 24.904C125.819 24.136 126.155 23.692 126.419 23.572C126.683 23.428 126.983 23.524 127.319 23.86C127.583 24.172 127.679 24.532 127.607 24.94C127.535 25.324 127.319 25.948 126.959 26.812C126.791 27.076 126.647 27.328 126.527 27.568C126.407 27.784 126.239 28.132 126.023 28.612C125.711 29.356 125.423 30.028 125.159 30.628C124.895 31.204 124.619 31.864 124.331 32.608C124.235 32.992 124.103 33.436 123.935 33.94C123.791 34.444 123.671 34.9 123.575 35.308C123.503 35.692 123.419 36.052 123.323 36.388C123.251 36.7 123.167 36.856 123.071 36.856C122.879 37.072 122.699 37.456 122.531 38.008C122.363 38.536 122.219 39.088 122.099 39.664C122.003 40.24 121.919 40.72 121.847 41.104C121.799 41.392 121.763 41.764 121.739 42.22C121.715 42.676 121.703 43.12 121.703 43.552C121.703 43.96 121.703 44.248 121.703 44.416C121.703 44.944 121.691 45.28 121.667 45.424C121.643 45.568 121.547 45.64 121.379 45.64ZM113.711 43.372C114.215 43.372 114.743 43.156 115.295 42.724C115.871 42.292 116.447 41.812 117.023 41.284C117.383 40.948 117.767 40.504 118.175 39.952C118.607 39.4 119.015 38.848 119.399 38.296C119.807 37.744 120.131 37.264 120.371 36.856C120.611 36.424 120.731 36.16 120.731 36.064C120.731 35.944 120.623 35.86 120.407 35.812C120.191 35.764 119.939 35.74 119.651 35.74C119.387 35.716 119.171 35.728 119.003 35.776C118.475 35.896 117.947 36.136 117.419 36.496C116.915 36.856 116.363 37.396 115.763 38.116C115.139 38.884 114.623 39.676 114.215 40.492C113.831 41.308 113.591 41.992 113.495 42.544C113.399 43.096 113.471 43.372 113.711 43.372ZM129.931 45.784C129.619 45.808 129.367 45.784 129.175 45.712C128.983 45.616 128.743 45.484 128.455 45.316C127.927 44.908 127.531 44.5 127.267 44.092C127.027 43.66 126.919 43.24 126.943 42.832C126.991 42.616 126.991 42.424 126.943 42.256C126.919 42.088 126.907 42.004 126.907 42.004C126.763 41.884 126.715 41.812 126.763 41.788C126.811 41.74 126.847 41.668 126.871 41.572C127.063 41.524 127.087 41.392 126.943 41.176C126.871 40.984 126.907 40.552 127.051 39.88C127.219 39.184 127.435 38.536 127.699 37.936C127.819 37.672 127.987 37.324 128.203 36.892C128.443 36.46 128.707 36.028 128.995 35.596C129.283 35.14 129.547 34.78 129.787 34.516C130.315 33.916 130.783 33.472 131.191 33.184C131.623 32.872 132.103 32.62 132.631 32.428C133.111 32.236 133.459 32.128 133.675 32.104C133.891 32.08 134.191 32.224 134.575 32.536C135.151 32.704 135.583 32.944 135.871 33.256C136.183 33.544 136.423 34 136.591 34.624C136.783 35.32 136.843 36.148 136.771 37.108C136.723 38.044 136.315 39.256 135.547 40.744C135.091 41.68 134.635 42.388 134.179 42.868C133.747 43.348 133.219 43.852 132.595 44.38C132.139 44.764 131.719 45.064 131.335 45.28C130.951 45.496 130.483 45.664 129.931 45.784ZM132.811 41.5C133.291 40.78 133.663 40.12 133.927 39.52C134.215 38.896 134.443 38.116 134.611 37.18C134.659 36.916 134.671 36.592 134.647 36.208C134.623 35.8 134.563 35.428 134.467 35.092C134.395 34.756 134.287 34.576 134.143 34.552C133.831 34.432 133.483 34.432 133.099 34.552C132.715 34.648 132.295 34.936 131.839 35.416C131.431 35.896 131.059 36.436 130.723 37.036C130.411 37.636 130.123 38.296 129.859 39.016C129.595 39.736 129.343 40.504 129.103 41.32C128.863 42.232 128.875 42.928 129.139 43.408C129.427 43.888 129.895 44.008 130.543 43.768C131.191 43.504 131.947 42.748 132.811 41.5ZM140.787 45.172C140.667 45.412 140.487 45.484 140.247 45.388C140.031 45.292 139.851 45.196 139.707 45.1C139.539 45.1 139.395 45.052 139.275 44.956C139.155 44.86 139.071 44.716 139.023 44.524C138.975 44.38 138.963 44.212 138.987 44.02C139.011 43.804 139.059 43.564 139.131 43.3C139.227 43.012 139.323 42.7 139.419 42.364C139.611 41.572 139.743 40.996 139.815 40.636C139.887 40.276 139.959 39.964 140.031 39.7C140.103 39.436 140.199 39.052 140.319 38.548C140.511 38.068 140.667 37.6 140.787 37.144C140.907 36.688 141.087 36.232 141.327 35.776C141.495 35.152 141.699 34.564 141.939 34.012C142.203 33.436 142.455 32.956 142.695 32.572C142.743 32.5 142.827 32.404 142.947 32.284C143.091 32.164 143.211 32.104 143.307 32.104C143.499 31.912 143.667 31.84 143.811 31.888C143.979 31.912 144.183 32.02 144.423 32.212C144.711 32.524 144.819 32.884 144.747 33.292C144.699 33.7 144.411 34.3 143.883 35.092C143.595 35.836 143.331 36.484 143.091 37.036C142.851 37.564 142.683 38.068 142.587 38.548C142.851 38.164 143.139 37.816 143.451 37.504C143.787 37.168 144.063 36.892 144.279 36.676C144.807 36.148 145.239 35.764 145.575 35.524C145.935 35.284 146.355 35.008 146.835 34.696C147.123 34.504 147.399 34.336 147.663 34.192C147.927 34.024 148.215 33.904 148.527 33.832C148.863 33.76 149.223 33.76 149.607 33.832C149.847 33.808 150.039 33.88 150.183 34.048C150.351 34.216 150.483 34.444 150.579 34.732C150.675 35.02 150.735 35.356 150.759 35.74C150.207 35.62 149.715 35.644 149.283 35.812C148.851 35.956 148.479 36.136 148.167 36.352C147.879 36.568 147.651 36.736 147.483 36.856C147.123 37.096 146.667 37.42 146.115 37.828C145.563 38.212 145.011 38.68 144.459 39.232C144.027 39.712 143.655 40.12 143.343 40.456C143.055 40.792 142.815 41.092 142.623 41.356C142.455 41.62 142.323 41.896 142.227 42.184C141.987 42.736 141.735 43.336 141.471 43.984C141.207 44.632 140.979 45.028 140.787 45.172ZM161.734 48.976C161.414 48.624 161.206 48.32 161.11 48.064C161.014 47.84 160.998 47.552 161.062 47.2C161.158 46.88 161.286 46.416 161.446 45.808C161.702 44.784 161.974 43.936 162.262 43.264C162.582 42.56 162.886 41.84 163.174 41.104C163.494 40.336 163.766 39.36 163.99 38.176C164.502 36.992 164.95 35.872 165.334 34.816C165.75 33.76 166.07 32.896 166.294 32.224C166.518 31.552 166.63 31.216 166.63 31.216C166.662 31.088 166.806 30.752 167.062 30.208C167.318 29.664 167.638 29.008 168.022 28.24C168.438 27.44 168.822 26.64 169.174 25.84C169.718 24.304 170.15 22.992 170.47 21.904C170.822 20.784 171.174 19.776 171.526 18.88C171.878 17.984 172.342 17.104 172.918 16.24C173.302 15.568 173.75 15.136 174.262 14.944C174.774 14.752 175.254 14.768 175.702 14.992C176.182 15.184 176.518 15.6 176.71 16.24C176.87 16.56 176.998 16.944 177.094 17.392C177.222 17.84 177.334 18.496 177.43 19.36C177.526 20.192 177.59 21.376 177.622 22.912C177.686 24.736 177.702 26.544 177.67 28.336C177.638 30.096 177.638 31.728 177.67 33.232C177.734 34.736 177.91 36.016 178.198 37.072C178.294 37.648 178.422 38.352 178.582 39.184C178.774 39.984 178.966 40.784 179.158 41.584C179.382 42.384 179.59 43.056 179.782 43.6C180.006 44.144 180.182 44.416 180.31 44.416C180.47 44.416 180.678 44.208 180.934 43.792C181.222 43.376 181.574 42.624 181.99 41.536C182.438 40.448 182.966 38.912 183.574 36.928C184.182 34.912 184.87 32.336 185.638 29.2C185.798 28.656 186.006 27.776 186.262 26.56C186.55 25.344 186.758 24.112 186.886 22.864C187.11 22.064 187.334 21.184 187.558 20.224C187.782 19.264 187.974 18.416 188.134 17.68C188.326 16.944 188.422 16.528 188.422 16.432C188.422 16.208 188.422 16.016 188.422 15.856C188.454 15.696 188.454 15.536 188.422 15.376C188.582 15.376 188.726 15.168 188.854 14.752C188.982 14.304 189.046 13.92 189.046 13.6C189.046 13.056 189.11 12.624 189.238 12.304C189.398 11.952 189.558 11.696 189.718 11.536C189.814 11.28 190.054 11.168 190.438 11.2C190.822 11.2 191.206 11.296 191.59 11.488C191.974 11.68 192.214 11.936 192.31 12.256C192.374 12.608 192.278 13.408 192.022 14.656C191.798 15.872 191.446 17.52 190.966 19.6C190.966 19.952 190.87 20.528 190.678 21.328C190.486 22.128 190.278 22.976 190.054 23.872C189.862 24.768 189.718 25.536 189.622 26.176C189.494 27.008 189.35 27.792 189.19 28.528C189.03 29.232 188.87 29.568 188.71 29.536C187.878 33.152 186.998 36.24 186.07 38.8C185.174 41.328 184.374 43.392 183.67 44.992C182.902 46.752 182.054 47.808 181.126 48.16C180.23 48.544 179.27 48.08 178.246 46.768C177.638 45.936 177.158 45.12 176.806 44.32C176.454 43.488 176.166 42.528 175.942 41.44C175.718 40.32 175.446 38.944 175.126 37.312C174.646 36 174.374 34.672 174.31 33.328C174.278 31.984 174.326 30.608 174.454 29.2C174.582 27.76 174.678 26.272 174.742 24.736C174.71 23.2 174.646 22.176 174.55 21.664C174.454 21.152 174.262 21.184 173.974 21.76C173.718 22.304 173.286 23.424 172.678 25.12C172.454 25.728 172.15 26.464 171.766 27.328C171.414 28.192 171.062 29.056 170.71 29.92C170.358 30.752 170.054 31.488 169.798 32.128C169.542 32.736 169.382 33.12 169.318 33.28C169.126 33.664 168.902 34.176 168.646 34.816C168.39 35.424 168.182 36.08 168.022 36.784C166.87 39.792 166.006 42.192 165.43 43.984C164.886 45.776 164.486 47.024 164.23 47.728C163.91 48.624 163.574 49.216 163.222 49.504C162.87 49.824 162.374 49.648 161.734 48.976ZM195.749 44.74C195.245 45.172 194.657 45.424 193.985 45.496C193.337 45.568 192.701 45.472 192.077 45.208C191.453 44.92 190.937 44.488 190.529 43.912C190.121 43.384 189.857 42.784 189.737 42.112C189.617 41.416 189.605 40.516 189.701 39.412C189.773 38.476 190.073 37.54 190.601 36.604C191.129 35.644 191.765 34.792 192.509 34.048C193.277 33.304 194.033 32.788 194.777 32.5C195.137 32.26 195.437 32.152 195.677 32.176C195.941 32.176 196.337 32.2 196.865 32.248C197.417 32.32 197.825 32.428 198.089 32.572C198.377 32.716 198.605 32.908 198.773 33.148C199.133 33.508 199.373 33.868 199.493 34.228C199.613 34.564 199.673 34.9 199.673 35.236C199.577 35.764 199.217 36.412 198.593 37.18C197.993 37.924 197.201 38.536 196.217 39.016C195.689 39.184 195.113 39.256 194.489 39.232C193.865 39.208 193.349 39.052 192.941 38.764C192.485 38.572 192.185 38.608 192.041 38.872C191.897 39.112 191.765 39.712 191.645 40.672C191.549 41.584 191.621 42.256 191.861 42.688C192.101 43.096 192.425 43.336 192.833 43.408C193.313 43.504 193.685 43.576 193.949 43.624C194.237 43.648 194.585 43.54 194.993 43.3C195.377 43.06 195.617 42.928 195.713 42.904C195.809 42.856 195.881 42.808 195.929 42.76C196.001 42.688 196.157 42.532 196.396 42.292C196.565 42.124 196.697 42.004 196.793 41.932C196.889 41.836 196.997 41.788 197.117 41.788C197.237 41.788 197.345 41.848 197.441 41.968C197.537 42.064 197.633 42.136 197.729 42.184C197.969 42.184 198.017 42.328 197.873 42.616C197.753 42.904 197.501 43.252 197.117 43.66C196.733 44.044 196.277 44.404 195.749 44.74ZM195.713 37.108C195.977 36.988 196.253 36.82 196.541 36.604C196.829 36.364 197.069 36.112 197.261 35.848C197.477 35.56 197.585 35.32 197.585 35.128C197.585 34.792 197.429 34.516 197.117 34.3C196.805 34.06 196.337 34.024 195.713 34.192C195.449 34.264 195.148 34.444 194.812 34.732C194.477 34.996 194.153 35.296 193.841 35.632C193.553 35.968 193.313 36.268 193.121 36.532C192.953 36.796 192.893 36.952 192.941 37C193.013 37.12 193.217 37.216 193.553 37.288C193.889 37.336 194.261 37.348 194.669 37.324C195.101 37.3 195.449 37.228 195.713 37.108ZM203.964 45.748C203.7 45.7 203.424 45.568 203.136 45.352C202.872 45.112 202.632 44.848 202.416 44.56C202.224 44.248 202.092 43.972 202.02 43.732C202.02 43.684 201.984 43.624 201.912 43.552C201.864 43.48 201.84 43.444 201.84 43.444C201.744 43.372 201.684 43.06 201.66 42.508C201.66 41.932 201.696 41.296 201.768 40.6C201.84 39.904 201.924 39.352 202.02 38.944C202.14 38.56 202.32 38.044 202.56 37.396C202.8 36.724 203.004 36.124 203.172 35.596L204.144 33.508L202.704 33.112C202.536 33.064 202.392 32.968 202.272 32.824C202.176 32.68 202.128 32.56 202.128 32.464C202.128 32.272 202.236 32.044 202.452 31.78C202.668 31.492 202.824 31.348 202.92 31.348C203.04 31.372 203.256 31.384 203.568 31.384C203.904 31.384 204.228 31.372 204.54 31.348C204.852 31.324 205.044 31.3 205.116 31.276C205.212 31.228 205.308 31.168 205.404 31.096C205.5 31 205.572 30.868 205.62 30.7C205.74 30.436 205.848 30.196 205.944 29.98C206.04 29.74 206.172 29.476 206.34 29.188C206.508 28.876 206.64 28.612 206.736 28.396C206.856 28.18 207.036 27.88 207.276 27.496C207.396 27.328 207.528 27.124 207.672 26.884C207.816 26.644 207.996 26.44 208.212 26.272C208.428 26.08 208.644 25.996 208.86 26.02C209.1 26.02 209.4 26.176 209.76 26.488C209.952 26.728 210.06 26.908 210.084 27.028C210.108 27.148 210.012 27.376 209.796 27.712C209.604 28.12 209.376 28.528 209.112 28.936C208.872 29.344 208.644 29.752 208.428 30.16C208.044 30.688 207.972 30.988 208.212 31.06C208.452 31.132 209.124 31.084 210.228 30.916C210.924 30.796 211.428 30.832 211.74 31.024C212.052 31.192 212.232 31.48 212.28 31.888C212.352 32.464 212.292 32.812 212.1 32.932C211.908 33.052 211.356 33.112 210.444 33.112C209.868 33.208 209.376 33.268 208.968 33.292C208.56 33.292 208.26 33.292 208.068 33.292C207.756 33.316 207.552 33.328 207.456 33.328C207.36 33.328 207.216 33.352 207.024 33.4C206.832 33.448 206.688 33.532 206.592 33.652C206.52 33.748 206.436 33.892 206.34 34.084C206.244 34.18 206.1 34.432 205.908 34.84C205.716 35.248 205.476 35.692 205.188 36.172C204.852 37.18 204.564 38.188 204.324 39.196C204.084 40.18 203.892 41.14 203.748 42.076C203.652 42.676 203.664 43.096 203.784 43.336C203.904 43.552 204.216 43.684 204.72 43.732C204.984 43.756 205.404 43.756 205.98 43.732C206.58 43.684 207.048 43.612 207.384 43.516C207.648 43.396 207.924 43.276 208.212 43.156C208.5 43.012 208.764 42.868 209.004 42.724C209.22 42.604 209.436 42.484 209.652 42.364C209.868 42.22 209.976 42.148 209.976 42.148C210.096 41.956 210.228 41.896 210.372 41.968C210.516 42.04 210.636 42.22 210.732 42.508C210.732 42.796 210.672 43.096 210.552 43.408C210.432 43.72 209.988 44.092 209.22 44.524C208.14 45.196 207.144 45.604 206.232 45.748C205.344 45.868 204.588 45.868 203.964 45.748ZM221.75 45.784C221.414 45.592 221.138 45.34 220.922 45.028C220.706 44.692 220.55 44.26 220.454 43.732C220.382 43.18 220.346 42.496 220.346 41.68C220.346 41.248 220.346 40.852 220.346 40.492C220.346 40.132 220.346 39.952 220.346 39.952C220.346 39.952 220.226 40.108 219.986 40.42C219.746 40.732 219.458 41.152 219.122 41.68C218.594 42.664 218.054 43.48 217.502 44.128C216.95 44.752 216.542 45.112 216.278 45.208C216.158 45.256 215.978 45.268 215.738 45.244C215.498 45.196 215.246 45.136 214.982 45.064C214.742 44.968 214.526 44.86 214.334 44.74C214.142 44.62 214.022 44.488 213.974 44.344C213.926 44.224 213.902 43.96 213.902 43.552C213.902 43.12 213.914 42.652 213.938 42.148C213.986 41.62 214.046 41.14 214.118 40.708C214.19 40.252 214.274 39.928 214.37 39.736C214.37 39.664 214.382 39.592 214.406 39.52C214.454 39.424 214.442 39.328 214.37 39.232C214.37 39.232 214.442 38.968 214.586 38.44C214.754 37.912 214.946 37.288 215.162 36.568C215.402 35.848 215.618 35.176 215.81 34.552C216.026 33.904 216.182 33.472 216.278 33.256C216.278 33.064 216.302 32.86 216.35 32.644C216.422 32.428 216.458 32.272 216.458 32.176C216.458 31.96 216.578 31.732 216.818 31.492C217.082 31.348 217.286 31.324 217.43 31.42C217.598 31.492 217.802 31.624 218.042 31.816C218.282 32.056 218.438 32.248 218.51 32.392C218.606 32.536 218.606 32.74 218.51 33.004C218.438 33.268 218.282 33.7 218.042 34.3C217.802 34.828 217.574 35.392 217.358 35.992C217.142 36.568 216.95 37.108 216.782 37.612C216.638 38.092 216.53 38.464 216.458 38.728C216.458 38.896 216.422 39.064 216.35 39.232C216.302 39.376 216.278 39.496 216.278 39.592C216.206 39.664 216.158 39.748 216.134 39.844C216.134 39.94 216.134 40.036 216.134 40.132C216.134 40.228 216.098 40.396 216.026 40.636C215.954 40.852 215.918 41.092 215.918 41.356C215.822 41.812 215.87 42.076 216.062 42.148C216.278 42.196 216.482 42.172 216.674 42.076C216.746 41.98 216.902 41.812 217.142 41.572C217.406 41.332 217.622 41.08 217.79 40.816C217.886 40.528 217.982 40.336 218.078 40.24C218.198 40.144 218.294 40.06 218.366 39.988C218.438 39.916 218.474 39.784 218.474 39.592C218.474 39.496 218.582 39.304 218.798 39.016C219.038 38.704 219.29 38.356 219.554 37.972C220.058 37.108 220.37 36.556 220.49 36.316C220.682 35.98 220.874 35.692 221.066 35.452C221.282 35.188 221.474 34.864 221.642 34.48C221.738 34.288 221.81 34.156 221.858 34.084C221.93 33.988 222.098 33.94 222.362 33.94C222.626 33.94 222.818 33.964 222.938 34.012C223.058 34.06 223.154 34.216 223.226 34.48C223.418 34.648 223.526 34.828 223.55 35.02C223.574 35.188 223.586 35.356 223.586 35.524C223.49 35.62 223.43 35.74 223.406 35.884C223.406 36.004 223.406 36.064 223.406 36.064C223.406 36.136 223.358 36.352 223.262 36.712C223.19 37.072 223.07 37.42 222.902 37.756C222.71 38.572 222.554 39.448 222.434 40.384C222.314 41.296 222.254 42.088 222.254 42.76C222.278 43.408 222.35 43.78 222.47 43.876C222.614 43.972 222.89 43.744 223.298 43.192C223.73 42.64 224.21 41.968 224.738 41.176C224.858 40.984 225.11 40.672 225.494 40.24C225.878 39.808 226.142 39.424 226.286 39.088C226.286 38.968 226.358 38.776 226.502 38.512C226.646 38.224 226.79 37.924 226.934 37.612C227.078 37.276 227.15 37 227.15 36.784C227.126 36.736 227.246 36.52 227.51 36.136C227.774 35.752 228.026 35.26 228.266 34.66C228.385 34.18 228.602 33.832 228.914 33.616C229.25 33.4 229.55 33.328 229.814 33.4C230.078 33.448 230.174 33.676 230.102 34.084C229.982 34.9 229.706 35.848 229.273 36.928C228.866 37.984 228.386 39.052 227.834 40.132C227.306 41.188 226.778 42.124 226.25 42.94C226.058 43.108 225.89 43.312 225.746 43.552C225.602 43.768 225.53 43.924 225.53 44.02C225.53 44.068 225.422 44.188 225.206 44.38C225.014 44.548 224.774 44.752 224.486 44.992C224.198 45.208 223.898 45.412 223.586 45.604C223.274 45.844 222.986 45.976 222.722 46C222.458 46.024 222.134 45.952 221.75 45.784ZM235.415 44.632C234.911 44.728 234.587 44.764 234.443 44.74C234.323 44.692 234.131 44.548 233.867 44.308C233.483 44.116 233.159 43.876 232.895 43.588C232.655 43.3 232.475 43 232.355 42.688C232.259 42.352 232.223 42.076 232.247 41.86C232.319 41.02 232.523 40.12 232.859 39.16C233.195 38.2 233.603 37.276 234.083 36.388C234.563 35.5 235.079 34.744 235.631 34.12C236.207 33.472 236.759 33.052 237.287 32.86C237.767 32.668 238.223 32.596 238.655 32.644C239.087 32.692 239.399 32.92 239.591 33.328C239.951 34.024 239.867 34.468 239.339 34.66C239.267 34.66 239.183 34.696 239.087 34.768C238.991 34.816 238.943 34.888 238.943 34.984C239.039 35.032 239.303 35.044 239.735 35.02C240.167 34.972 240.599 34.9 241.031 34.804C241.487 34.684 241.787 34.564 241.931 34.444C242.075 34.372 242.183 34.336 242.255 34.336C242.327 34.336 242.507 34.36 242.795 34.408C243.203 34.528 243.407 34.672 243.407 34.84C243.407 34.936 243.443 35.032 243.515 35.128C243.587 35.2 243.671 35.236 243.767 35.236C243.935 35.26 243.911 35.368 243.695 35.56C243.503 35.752 243.167 36.016 242.687 36.352C242.231 36.64 241.943 36.832 241.823 36.928C241.727 37 241.715 37.168 241.787 37.432C241.979 37.888 241.991 38.416 241.823 39.016C241.655 39.616 241.355 40.228 240.923 40.852C240.491 41.476 239.963 42.064 239.339 42.616C238.739 43.144 238.091 43.6 237.395 43.984C236.723 44.344 236.063 44.56 235.415 44.632ZM234.803 43.048C234.899 43.048 235.067 43 235.307 42.904C235.547 42.784 235.739 42.688 235.883 42.616C235.979 42.52 236.099 42.412 236.243 42.292C236.411 42.148 236.543 42.064 236.639 42.04C236.735 42.04 236.855 42.004 236.999 41.932C237.143 41.836 237.347 41.656 237.611 41.392C237.875 41.104 238.223 40.684 238.655 40.132C239.135 39.604 239.507 39.124 239.771 38.692C240.035 38.236 240.107 37.816 239.987 37.432C239.963 37.336 239.891 37.276 239.771 37.252C239.675 37.228 239.543 37.168 239.375 37.072C239.135 37.072 238.907 37.012 238.691 36.892C238.499 36.748 238.271 36.568 238.007 36.352L237.431 35.632L236.819 36.244C236.435 36.628 236.027 37.204 235.595 37.972C235.187 38.716 234.839 39.484 234.551 40.276C234.263 41.044 234.095 41.656 234.047 42.112C234.023 42.472 234.083 42.712 234.227 42.832C234.371 42.952 234.563 43.024 234.803 43.048ZM246.127 45.172C246.007 45.412 245.827 45.484 245.587 45.388C245.371 45.292 245.191 45.196 245.047 45.1C244.879 45.1 244.735 45.052 244.615 44.956C244.495 44.86 244.411 44.716 244.363 44.524C244.315 44.38 244.303 44.212 244.327 44.02C244.351 43.804 244.399 43.564 244.471 43.3C244.567 43.012 244.663 42.7 244.759 42.364C244.951 41.572 245.083 40.996 245.155 40.636C245.227 40.276 245.299 39.964 245.371 39.7C245.443 39.436 245.539 39.052 245.659 38.548C245.851 38.068 246.007 37.6 246.127 37.144C246.247 36.688 246.427 36.232 246.667 35.776C246.835 35.152 247.039 34.564 247.279 34.012C247.543 33.436 247.795 32.956 248.035 32.572C248.083 32.5 248.167 32.404 248.287 32.284C248.431 32.164 248.551 32.104 248.647 32.104C248.839 31.912 249.007 31.84 249.151 31.888C249.319 31.912 249.523 32.02 249.763 32.212C250.051 32.524 250.159 32.884 250.087 33.292C250.039 33.7 249.751 34.3 249.223 35.092C248.935 35.836 248.671 36.484 248.431 37.036C248.191 37.564 248.023 38.068 247.927 38.548C248.191 38.164 248.479 37.816 248.791 37.504C249.127 37.168 249.403 36.892 249.619 36.676C250.147 36.148 250.579 35.764 250.915 35.524C251.275 35.284 251.695 35.008 252.175 34.696C252.463 34.504 252.739 34.336 253.003 34.192C253.267 34.024 253.555 33.904 253.867 33.832C254.203 33.76 254.563 33.76 254.947 33.832C255.187 33.808 255.379 33.88 255.523 34.048C255.691 34.216 255.823 34.444 255.919 34.732C256.015 35.02 256.075 35.356 256.099 35.74C255.547 35.62 255.055 35.644 254.623 35.812C254.191 35.956 253.819 36.136 253.507 36.352C253.219 36.568 252.991 36.736 252.823 36.856C252.463 37.096 252.007 37.42 251.455 37.828C250.903 38.212 250.351 38.68 249.799 39.232C249.367 39.712 248.995 40.12 248.683 40.456C248.395 40.792 248.155 41.092 247.963 41.356C247.795 41.62 247.663 41.896 247.567 42.184C247.327 42.736 247.075 43.336 246.811 43.984C246.547 44.632 246.319 45.028 246.127 45.172ZM257.731 45.82C257.539 45.748 257.335 45.604 257.119 45.388C256.903 45.148 256.723 44.872 256.579 44.56C256.435 44.248 256.363 43.96 256.363 43.696C256.483 43.432 256.639 42.976 256.831 42.328C257.023 41.656 257.263 40.888 257.551 40.024C257.743 39.76 257.887 39.448 257.983 39.088C258.103 38.728 258.211 38.404 258.307 38.116C258.499 37.732 258.727 37.24 258.991 36.64C259.255 36.016 259.507 35.392 259.747 34.768C260.011 34.12 260.239 33.58 260.431 33.148C260.743 32.5 261.007 31.912 261.223 31.384C261.463 30.832 261.691 30.28 261.907 29.728C262.147 29.176 262.399 28.576 262.663 27.928C262.951 27.256 263.239 26.572 263.527 25.876C263.839 25.18 264.103 24.556 264.319 24.004C264.559 23.428 264.703 23.02 264.751 22.78C264.751 22.588 264.787 22.444 264.859 22.348C264.955 22.252 265.051 22.204 265.147 22.204C265.243 22.108 265.339 22.06 265.435 22.06C265.531 22.036 265.627 22.024 265.723 22.024C265.819 22.024 265.999 22.204 266.263 22.564C266.551 22.924 266.695 23.248 266.695 23.536C266.695 23.92 266.503 24.64 266.119 25.696C265.759 26.752 265.243 27.952 264.571 29.296C263.755 31.072 263.095 32.536 262.591 33.688C262.087 34.816 261.739 35.668 261.547 36.244C261.355 36.796 261.283 37.108 261.331 37.18C261.331 37.18 261.499 37.108 261.835 36.964C262.171 36.796 262.531 36.568 262.915 36.28C263.179 36.136 263.467 35.956 263.779 35.74C264.091 35.524 264.391 35.32 264.679 35.128C264.967 34.912 265.207 34.78 265.399 34.732C265.687 34.54 265.987 34.36 266.299 34.192C266.611 34 266.815 33.856 266.911 33.76C267.319 33.568 267.619 33.508 267.811 33.58C268.027 33.652 268.243 33.832 268.459 34.12C268.723 34.432 268.771 34.708 268.603 34.948C268.435 35.164 268.039 35.464 267.415 35.848C266.911 36.16 266.299 36.532 265.579 36.964C264.883 37.396 264.259 37.78 263.707 38.116C263.179 38.452 262.879 38.656 262.807 38.728C262.807 38.728 262.903 38.908 263.095 39.268C263.287 39.628 263.479 39.952 263.671 40.24C263.863 40.624 264.067 40.984 264.283 41.32C264.523 41.632 264.643 41.848 264.643 41.968C264.907 42.712 265.303 43.252 265.831 43.588C266.359 43.924 266.911 43.96 267.487 43.696C267.967 43.504 268.315 43.444 268.531 43.516C268.771 43.588 268.939 43.768 269.035 44.056C269.131 44.248 269.155 44.392 269.107 44.488C269.083 44.56 268.927 44.74 268.639 45.028C268.183 45.484 267.715 45.772 267.235 45.892C266.779 46.012 266.359 45.976 265.975 45.784C265.615 45.808 265.171 45.58 264.643 45.1C264.115 44.596 263.359 43.708 262.375 42.436C262.375 42.34 262.327 42.208 262.231 42.04C262.159 41.848 262.075 41.668 261.979 41.5C261.883 41.308 261.763 41.104 261.619 40.888C261.475 40.648 261.403 40.528 261.403 40.528C261.403 40.432 261.367 40.324 261.295 40.204C261.223 40.084 261.127 39.94 261.007 39.772C260.623 39.652 260.347 39.724 260.179 39.988C260.011 40.252 259.831 40.528 259.639 40.816C259.519 41.128 259.363 41.572 259.171 42.148C259.003 42.7 258.859 43.24 258.739 43.768C258.643 44.296 258.619 44.656 258.667 44.848C258.667 45.232 258.607 45.496 258.487 45.64C258.367 45.76 258.115 45.82 257.731 45.82Z" fill="white"/>
<path d="M233.08 25C232.84 24.9333 232.647 24.8733 232.5 24.82C232.353 24.78 232.28 24.76 232.28 24.76C232.307 24.6933 232.293 24.6333 232.24 24.58C232.2 24.5267 232.107 24.4933 231.96 24.48C231.76 24.36 231.573 24.2067 231.4 24.02C231.24 23.8467 231.107 23.6733 231 23.5C230.893 23.3267 230.813 23.18 230.76 23.06C230.667 22.86 230.62 22.74 230.62 22.7C230.633 22.6467 230.713 22.5867 230.86 22.52C231.007 22.4133 231.113 22.38 231.18 22.42C231.26 22.46 231.353 22.5933 231.46 22.82C231.633 23.1267 231.927 23.36 232.34 23.52C232.767 23.68 233.24 23.7533 233.76 23.74C234.293 23.7133 234.8 23.5933 235.28 23.38C235.773 23.18 236.08 22.9733 236.2 22.76C236.333 22.5333 236.287 22.2467 236.06 21.9C236.02 21.7933 235.973 21.7067 235.92 21.64C235.867 21.5733 235.78 21.4867 235.66 21.38C235.553 21.2733 235.373 21.1 235.12 20.86C234.92 20.7667 234.733 20.68 234.56 20.6C234.4 20.52 234.227 20.4333 234.04 20.34C233.827 20.2333 233.567 20.08 233.26 19.88C232.967 19.6667 232.687 19.4333 232.42 19.18C232.153 18.9267 231.96 18.6933 231.84 18.48C231.627 18.28 231.467 18.0067 231.36 17.66C231.253 17.3 231.213 16.92 231.24 16.52C231.267 16.12 231.367 15.76 231.54 15.44C231.62 15.2533 231.753 15.0267 231.94 14.76C232.14 14.48 232.36 14.2 232.6 13.92C232.84 13.64 233.073 13.3867 233.3 13.16C233.527 12.9333 233.713 12.7733 233.86 12.68C233.967 12.5733 234.08 12.4667 234.2 12.36C234.32 12.24 234.38 12.18 234.38 12.18C234.393 12.1133 234.413 12.08 234.44 12.08C234.48 12.08 234.5 12.08 234.5 12.08C234.567 12.04 234.713 11.9733 234.94 11.88C235.167 11.7867 235.413 11.6133 235.68 11.36C236.573 10.9333 237.3 10.62 237.86 10.42C238.42 10.22 238.88 10.12 239.24 10.12C239.573 10.1333 239.873 10.2133 240.14 10.36C240.42 10.4933 240.647 10.6733 240.82 10.9C241.007 11.1267 241.12 11.4 241.16 11.72C241.253 12.04 241.227 12.4133 241.08 12.84C240.933 13.2533 240.713 13.6467 240.42 14.02C240.14 14.38 239.833 14.6533 239.5 14.84C239.127 15 238.873 15.0733 238.74 15.06C238.62 15.0333 238.567 14.8933 238.58 14.64C238.58 14.5333 238.613 14.4067 238.68 14.26C238.76 14.1133 238.967 13.8533 239.3 13.48C239.727 12.8533 239.987 12.3533 240.08 11.98C240.173 11.6067 240.087 11.4 239.82 11.36C239.74 11.3333 239.593 11.3333 239.38 11.36C239.18 11.3867 238.953 11.4267 238.7 11.48C238.46 11.52 238.253 11.5667 238.08 11.62C237.907 11.66 237.82 11.6933 237.82 11.72C237.82 11.72 237.82 11.74 237.82 11.78C237.82 11.82 237.793 11.8333 237.74 11.82C237.713 11.82 237.6 11.8733 237.4 11.98C237.2 12.0867 236.96 12.2267 236.68 12.4C236.4 12.5733 236.12 12.7467 235.84 12.92C235.56 13.0933 235.32 13.2467 235.12 13.38C234.933 13.5 234.833 13.5733 234.82 13.6C234.793 13.7467 234.64 13.88 234.36 14C234.093 14.16 233.847 14.3933 233.62 14.7C233.407 15.0067 233.167 15.3867 232.9 15.84C232.673 16.1467 232.513 16.48 232.42 16.84C232.327 17.1867 232.327 17.4667 232.42 17.68C232.487 17.8933 232.693 18.1667 233.04 18.5C233.387 18.8333 233.82 19.1533 234.34 19.46C234.793 19.7133 235.2 19.9667 235.56 20.22C235.92 20.46 236.213 20.6933 236.44 20.92C236.68 21.1467 236.84 21.3467 236.92 21.52C237.08 21.7467 237.193 21.98 237.26 22.22C237.34 22.4467 237.38 22.6667 237.38 22.88C237.393 23.0933 237.373 23.2867 237.32 23.46C237.227 23.6733 237.06 23.8933 236.82 24.12C236.593 24.3467 236.4 24.4533 236.24 24.44C236.093 24.48 235.98 24.5267 235.9 24.58C235.833 24.6333 235.753 24.68 235.66 24.72C235.567 24.7733 235.367 24.8267 235.06 24.88C234.767 24.9333 234.44 24.9667 234.08 24.98C233.72 25.0067 233.387 25.0133 233.08 25Z" fill="#FCE705"/>
<path d="M241.077 23.96L241.237 23.02C241.331 22.42 241.424 21.86 241.517 21.34C241.611 20.82 241.697 20.4 241.777 20.08C241.871 19.76 241.931 19.6 241.957 19.6C242.011 19.5733 242.037 19.52 242.037 19.44C242.037 19.3467 242.044 19.2333 242.057 19.1L242.097 18.6L241.797 18.64C241.637 18.6133 241.544 18.58 241.517 18.54C241.491 18.5 241.477 18.38 241.477 18.18C241.491 18.0467 241.511 17.9533 241.537 17.9C241.564 17.8333 241.637 17.7933 241.757 17.78C241.971 17.7133 242.191 17.5933 242.417 17.42C242.657 17.2333 242.771 17.0733 242.757 16.94C242.771 16.8333 242.817 16.62 242.897 16.3C242.991 15.9667 243.111 15.6 243.257 15.2C243.404 14.7867 243.564 14.4133 243.737 14.08C243.791 13.9067 243.837 13.7333 243.877 13.56C243.931 13.3733 243.957 13.2333 243.957 13.14C243.984 13.0333 244.017 12.9133 244.057 12.78C244.097 12.6467 244.117 12.5533 244.117 12.5C244.197 12.3533 244.211 12.2733 244.157 12.26C244.104 12.2333 243.977 12.2333 243.777 12.26C243.777 12.26 243.717 12.2733 243.597 12.3C243.477 12.3133 243.344 12.3133 243.197 12.3C242.984 12.3533 242.837 12.3733 242.757 12.36C242.677 12.3467 242.611 12.2867 242.557 12.18C242.437 12.06 242.384 11.9333 242.397 11.8C242.424 11.6667 242.497 11.6067 242.617 11.62C242.684 11.6333 242.737 11.6267 242.777 11.6C242.831 11.56 242.884 11.5133 242.937 11.46C242.991 11.4067 243.117 11.3467 243.317 11.28C243.517 11.2 243.764 11.1533 244.057 11.14C244.191 11.1267 244.351 11.1 244.537 11.06C244.737 11.0067 244.917 10.9467 245.077 10.88C245.237 10.8133 245.331 10.7667 245.357 10.74C245.357 10.6733 245.391 10.64 245.457 10.64C245.537 10.64 245.604 10.64 245.657 10.64C245.711 10.6267 245.811 10.6133 245.957 10.6C246.117 10.5733 246.217 10.5667 246.257 10.58C246.364 10.5267 246.597 10.4867 246.957 10.46C247.317 10.42 247.864 10.4067 248.597 10.42C248.811 10.4333 248.991 10.4467 249.137 10.46C249.284 10.46 249.357 10.4333 249.357 10.38C249.357 10.38 249.444 10.3933 249.617 10.42C249.791 10.4333 249.984 10.4733 250.197 10.54C250.517 10.5533 250.771 10.6 250.957 10.68C251.144 10.7467 251.277 10.8533 251.357 11C251.451 11.1467 251.497 11.3467 251.497 11.6L251.577 12.06L251.037 11.88C250.931 11.8667 250.744 11.8467 250.477 11.82C250.211 11.78 249.917 11.7467 249.597 11.72C249.291 11.6933 248.997 11.6733 248.717 11.66C248.437 11.6333 248.237 11.6333 248.117 11.66C247.984 11.66 247.844 11.6733 247.697 11.7C247.551 11.7133 247.404 11.7133 247.257 11.7C247.071 11.7533 246.891 11.78 246.717 11.78C246.557 11.78 246.451 11.7733 246.397 11.76C246.264 11.8133 246.144 11.84 246.037 11.84C245.944 11.84 245.857 11.8733 245.777 11.94C245.777 11.94 245.737 11.96 245.657 12C245.591 12.04 245.531 12.06 245.477 12.06C245.424 12.0467 245.397 12.0733 245.397 12.14C245.397 12.2067 245.384 12.34 245.357 12.54C245.371 12.7267 245.364 12.8933 245.337 13.04C245.311 13.1867 245.257 13.3733 245.177 13.6C245.097 13.8267 244.971 14.16 244.797 14.6C244.717 14.8267 244.624 15.08 244.517 15.36C244.411 15.6267 244.344 15.8333 244.317 15.98C244.171 16.38 244.031 16.6867 243.897 16.9C243.924 17.0333 243.944 17.1067 243.957 17.12C243.984 17.12 244.044 17.08 244.137 17C244.244 17.04 244.331 17.04 244.397 17C244.477 16.96 244.544 16.9333 244.597 16.92C244.651 16.92 244.704 16.92 244.757 16.92C244.824 16.92 244.904 16.9333 244.997 16.96C244.984 16.9067 245.037 16.88 245.157 16.88C245.277 16.8667 245.411 16.8533 245.557 16.84C245.704 16.7733 245.884 16.7267 246.097 16.7C246.324 16.66 246.484 16.6133 246.577 16.56C246.724 16.4933 246.824 16.46 246.877 16.46C246.944 16.46 247.064 16.5 247.237 16.58C247.331 16.7 247.397 16.8467 247.437 17.02C247.477 17.18 247.491 17.3333 247.477 17.48C247.464 17.6133 247.424 17.7067 247.357 17.76C247.357 17.76 247.291 17.7867 247.157 17.84C247.024 17.88 246.884 17.9267 246.737 17.98C246.591 17.9533 246.451 17.9533 246.317 17.98C246.184 18.0067 246.091 18.0333 246.037 18.06C245.757 18.2333 245.297 18.2933 244.657 18.24C244.564 18.3067 244.451 18.34 244.317 18.34C244.197 18.34 244.104 18.3667 244.037 18.42C243.997 18.42 243.917 18.4333 243.797 18.46C243.691 18.4733 243.611 18.4733 243.557 18.46C243.504 18.46 243.471 18.5 243.457 18.58C243.444 18.6467 243.437 18.7067 243.437 18.76C243.437 18.8133 243.417 18.8667 243.377 18.92C243.337 18.9733 243.317 19 243.317 19C243.237 19.08 243.191 19.1667 243.177 19.26C243.177 19.26 243.171 19.34 243.157 19.5C243.157 19.66 243.124 19.8333 243.057 20.02C242.951 20.3667 242.851 20.72 242.757 21.08C242.664 21.44 242.597 21.7533 242.557 22.02C242.517 22.2733 242.511 22.4267 242.537 22.48C242.591 22.5333 242.644 22.58 242.697 22.62C242.751 22.66 242.811 22.6867 242.877 22.7C242.944 22.6467 243.004 22.6667 243.057 22.76C243.124 22.8533 243.164 22.9733 243.177 23.12C243.164 23.1733 243.104 23.28 242.997 23.44C242.891 23.5867 242.764 23.7533 242.617 23.94C242.444 24.3533 242.257 24.58 242.057 24.62C241.871 24.66 241.644 24.56 241.377 24.32L241.077 23.96Z" fill="#E22028"/>
<path d="M251.458 24.62C251.045 24.5533 250.705 24.4 250.438 24.16C250.185 23.9333 249.992 23.64 249.858 23.28C249.765 23.04 249.698 22.8267 249.658 22.64C249.618 22.44 249.665 22.12 249.798 21.68C249.838 21.2267 249.905 20.7667 249.998 20.3C250.105 19.82 250.245 19.3333 250.418 18.84C250.418 18.84 250.452 18.7267 250.518 18.5C250.585 18.2733 250.665 18.0467 250.758 17.82C250.918 17.3133 251.152 16.7333 251.458 16.08C251.765 15.4267 252.098 14.78 252.458 14.14C252.818 13.4867 253.165 12.92 253.498 12.44C253.845 11.9467 254.132 11.6133 254.358 11.44C254.478 11.3333 254.605 11.26 254.738 11.22C254.885 11.1667 255.012 11.1533 255.118 11.18C255.225 11.1933 255.278 11.2533 255.278 11.36C255.252 11.44 255.238 11.4867 255.238 11.5C255.238 11.5133 255.265 11.5267 255.318 11.54C255.438 11.5533 255.472 11.6467 255.418 11.82C255.365 11.9933 255.265 12.18 255.118 12.38C254.972 12.58 254.805 12.7333 254.618 12.84C254.618 12.84 254.605 12.8867 254.578 12.98C254.552 13.06 254.465 13.1533 254.318 13.26C254.265 13.42 254.212 13.5533 254.158 13.66C254.105 13.7667 254.078 13.82 254.078 13.82C254.078 13.82 254.045 13.8733 253.978 13.98C253.912 14.0733 253.845 14.2 253.778 14.36C253.658 14.5067 253.558 14.64 253.478 14.76C253.412 14.8667 253.378 14.9533 253.378 15.02C253.378 15.02 253.338 15.0933 253.258 15.24C253.192 15.3733 253.118 15.52 253.038 15.68C252.972 15.8267 252.938 15.92 252.938 15.96C252.938 15.96 252.912 15.98 252.858 16.02C252.818 16.0467 252.798 16.06 252.798 16.06C252.798 16.1267 252.758 16.28 252.678 16.52C252.598 16.7467 252.485 16.9667 252.338 17.18C252.165 17.5533 252.025 17.92 251.918 18.28C251.825 18.64 251.745 18.8733 251.678 18.98C251.652 19.0333 251.632 19.1067 251.618 19.2C251.565 19.2533 251.505 19.3867 251.438 19.6C251.372 19.8133 251.325 20.0933 251.298 20.44C251.205 20.72 251.118 20.96 251.038 21.16C250.972 21.36 250.938 21.46 250.938 21.46C250.858 21.4467 250.812 21.54 250.798 21.74C250.785 21.94 250.792 22.1733 250.818 22.44C250.845 22.6933 250.865 22.9067 250.878 23.08C250.985 23.24 251.125 23.3333 251.298 23.36C251.485 23.3733 251.805 23.3667 252.258 23.34C252.418 23.3667 252.605 23.3667 252.818 23.34C253.032 23.3 253.225 23.2933 253.398 23.32C253.518 23.32 253.705 23.3133 253.958 23.3C254.212 23.2733 254.458 23.24 254.698 23.2C255.112 23.16 255.358 23.1467 255.438 23.16C255.532 23.16 255.625 23.2133 255.718 23.32C255.878 23.5333 255.925 23.6867 255.858 23.78C255.805 23.8733 255.652 23.9533 255.398 24.02C254.892 24.1533 254.378 24.2667 253.858 24.36C253.338 24.4667 252.865 24.54 252.438 24.58C252.012 24.62 251.685 24.6333 251.458 24.62Z" fill="#29DD2C"/>
<path d="M259.353 25.04C258.74 24.8133 258.266 24.46 257.933 23.98C257.613 23.4867 257.44 22.8 257.413 21.92C257.4 21.0267 257.54 19.8867 257.833 18.5C257.926 18.0333 258.06 17.5 258.233 16.9C258.406 16.3 258.606 15.6867 258.833 15.06C259.073 14.42 259.32 13.8067 259.573 13.22C259.84 12.62 260.1 12.0933 260.353 11.64C260.66 11.0933 260.893 10.7533 261.053 10.62C261.226 10.4733 261.38 10.4133 261.513 10.44C261.766 10.5067 261.946 10.6333 262.053 10.82C262.173 10.9933 262.213 11.1867 262.173 11.4C262.146 11.6 262.02 11.7733 261.793 11.92C261.646 12.0933 261.453 12.4133 261.213 12.88C260.986 13.3333 260.753 13.7733 260.513 14.2C260.246 14.9733 260.013 15.66 259.813 16.26C259.613 16.8467 259.446 17.4 259.313 17.92C259.18 18.44 259.06 18.9867 258.953 19.56C258.833 20.12 258.74 20.58 258.673 20.94C258.62 21.3 258.58 21.6 258.553 21.84C258.54 22.0667 258.533 22.2667 258.533 22.44C258.533 22.6133 258.533 22.7933 258.533 22.98C258.64 23.1533 258.726 23.3067 258.793 23.44C258.86 23.5733 258.946 23.6533 259.053 23.68C259.28 23.7867 259.533 23.8133 259.813 23.76C260.106 23.7067 260.393 23.6 260.673 23.44C260.74 23.3067 260.826 23.2133 260.933 23.16C261.04 23.1067 261.093 23.08 261.093 23.08C261.12 23.1467 261.146 23.1667 261.173 23.14C261.213 23.1 261.24 23.0533 261.253 23C261.24 22.9467 261.253 22.9 261.293 22.86C261.333 22.8067 261.38 22.7533 261.433 22.7C261.54 22.66 261.693 22.5267 261.893 22.3C262.106 22.06 262.32 21.7933 262.533 21.5C262.76 21.2067 262.946 20.94 263.093 20.7C263.253 20.46 263.333 20.3133 263.333 20.26C263.333 20.1933 263.36 20.1333 263.413 20.08C263.466 20.0267 263.526 19.96 263.593 19.88C263.66 19.8133 263.793 19.6 263.993 19.24C264.206 18.8667 264.433 18.4333 264.673 17.94C264.926 17.4467 265.153 16.9933 265.353 16.58C265.393 16.4333 265.466 16.2 265.573 15.88C265.68 15.5467 265.793 15.1667 265.913 14.74C266.046 14.3133 266.173 13.8867 266.293 13.46C266.413 13.02 266.52 12.6333 266.613 12.3C266.72 11.9533 266.786 11.7 266.813 11.54C266.84 11.3667 266.88 11.2267 266.933 11.12C266.986 11 267.02 10.9133 267.033 10.86C267.1 10.8333 267.18 10.84 267.273 10.88C267.366 10.92 267.46 10.9667 267.553 11.02C267.66 11.0733 267.753 11.12 267.833 11.16C267.913 11.2667 267.946 11.4 267.933 11.56C267.92 11.72 267.873 11.9667 267.793 12.3C267.726 12.62 267.626 13.0867 267.493 13.7C267.213 14.7933 266.873 15.8 266.473 16.72C266.086 17.64 265.666 18.6133 265.213 19.64C265.213 19.64 265.213 19.6467 265.213 19.66C265.213 19.66 265.213 19.6933 265.213 19.76C265.053 19.8533 264.926 19.9933 264.833 20.18C264.766 20.3 264.706 20.4067 264.653 20.5C264.613 20.58 264.56 20.64 264.493 20.68C264.453 20.8 264.413 20.9067 264.373 21C264.333 21.0933 264.313 21.14 264.313 21.14C264.3 21.2067 264.253 21.2667 264.173 21.32C264.093 21.3733 264.013 21.4267 263.933 21.48C263.866 21.5067 263.826 21.56 263.813 21.64C263.8 21.72 263.773 21.7867 263.733 21.84C263.44 22.28 263.106 22.7133 262.733 23.14C262.36 23.5667 261.973 23.9333 261.573 24.24C261.186 24.56 260.813 24.7867 260.453 24.92C260.213 25.0133 260.013 25.0667 259.853 25.08C259.706 25.0933 259.54 25.08 259.353 25.04Z" fill="#1A69E0"/>
</svg>
